<svg width="97" height="21" viewBox="0 0 97 21" fill="none" xmlns="http://www.w3.org/2000/svg">
          <path d="M12.8739 9.17232C12.8739 8.93432 12.9439 8.6792 13.0699 8.45986C13.6595 7.43163 13.9115 6.61651 13.9115 5.73761C13.9115 2.83025 11.3712 0.713113 7.8852 0.713113H0V20.1484H9.55122C13.6953 20.1484 16.2977 18.0173 16.2977 14.6246C16.2977 12.8855 15.4873 11.6317 13.3888 10.0699C13.0513 9.81943 12.8739 9.50988 12.8739 9.17232ZM12.5784 14.735C12.5784 16.1973 11.3292 17.1228 9.35833 17.1228H3.56693V3.7387H7.49786C9.16855 3.7387 10.329 4.70627 10.329 6.09851C10.329 6.7394 10.2014 7.22319 9.84211 7.94186C9.51544 8.5952 9.39722 9.01676 9.39722 9.54099C9.39722 10.5412 9.81567 11.2226 11.0508 12.2352C12.1988 13.1764 12.5784 13.797 12.5784 14.735ZM64.7476 1.77557C64.1876 0.926226 63.4471 0.5 62.5371 0.5C61.1947 0.5 60.3251 1.31823 60.3251 2.58135V20.1547H63.864V5.95695L72.4399 18.9304C73.0839 19.9058 73.829 20.3724 74.7391 20.3724C76.0706 20.3724 76.9169 19.5418 76.9169 18.2366V0.713113H73.3795V14.8439L64.7476 1.77557ZM45.6094 20.5C50.623 20.5 53.7933 17.4277 53.7933 12.5712V0.713113H50.2637V12.3566C50.2637 15.4771 48.4981 17.3842 45.6094 17.3842C42.73 17.3842 40.9769 15.4911 40.9769 12.3846V0.711558H37.4255V12.5697C37.4255 17.4277 40.5958 20.5 45.6094 20.5ZM25.4258 17.0497C25.1956 17.0497 25.0074 16.8615 25.0074 16.6282V0.713113H21.4436V17.8509C21.4436 19.1202 22.4734 20.15 23.7412 20.15H34.1479V17.0497H25.4258ZM81.7049 3.79315H87.5305V20.1484H91.0943V3.79315H96.92V0.713113H81.7049V3.79315Z" fill="#262525"></path>
        </svg>