<svg width="15" height="20" viewBox="0 0 15 20" fill="none" xmlns="http://www.w3.org/2000/svg">
                      <path d="M14.0694 6.0187H11.6366L11.6368 4.24918C11.6368 2.8268 10.8779 1.51245 9.64632 0.801335C8.41464 0.0900661 6.89717 0.0900661 5.66553 0.801335C4.43386 1.51245 3.67522 2.8268 3.67522 4.24918V6.0187H1.02141C0.845394 6.0187 0.676626 6.08859 0.552285 6.2131C0.427795 6.33746 0.35791 6.50625 0.35791 6.68229V16.4144C0.35791 17.2945 0.707477 18.1383 1.32949 18.7605C1.95164 19.3828 2.79547 19.7322 3.67523 19.7322H11.4156C12.2954 19.7322 13.1393 19.3828 13.7614 18.7605C14.3834 18.1383 14.733 17.2945 14.733 16.4144V6.68229C14.733 6.50625 14.6631 6.33746 14.5386 6.2131C14.4142 6.0886 14.2455 6.0187 14.0695 6.0187H14.0694ZM5.00208 4.24918H5.00223C5.00223 3.30093 5.50808 2.42476 6.32908 1.95063C7.15023 1.4765 8.16189 1.4765 8.98289 1.95063C9.80405 2.42476 10.3099 3.30097 10.3099 4.24918V6.0187H5.00219L5.00208 4.24918ZM13.4059 16.4144C13.4059 16.9423 13.1963 17.4487 12.823 17.8221C12.4498 18.1953 11.9435 18.4052 11.4156 18.4052H3.67519C3.1473 18.4052 2.64097 18.1953 2.26782 17.8221C1.8945 17.4487 1.68484 16.9424 1.68484 16.4144V7.34577H3.67515V9.77873C3.67515 10.0159 3.80165 10.235 4.00682 10.3535C4.21214 10.472 4.46512 10.472 4.67032 10.3535C4.87565 10.235 5.00214 10.0159 5.00214 9.77873V7.34577H10.3098V9.77873C10.3098 10.0159 10.4363 10.235 10.6415 10.3535C10.8468 10.472 11.0998 10.472 11.305 10.3535C11.5103 10.235 11.6368 10.0159 11.6368 9.77873V7.34577H13.4061L13.4059 16.4144Z" fill="#262525"></path>
                    </svg>