<svg width="530" height="440" viewBox="0 0 530 440" fill="none" xmlns="http://www.w3.org/2000/svg">
<path d="M288.117 419.86C287.715 419.86 287.391 419.535 287.391 419.134C287.391 418.553 287.507 360.519 286.723 327.74C286.723 324.009 288.639 271.458 288.722 269.222C288.736 268.859 289.017 268.559 289.38 268.525C289.738 268.491 290.077 268.733 290.154 269.087L303.751 328.98C306.398 342.034 312.231 393.611 313.542 418.34C315.672 418.354 323.416 418.403 345.275 418.403C344.491 412.657 339.626 377.45 331.596 330.572C331.587 330.524 331.587 330.475 331.587 330.427C331.587 330.398 331.664 327.663 331.664 324.347C331.664 322.561 330.861 319.701 329.926 316.39C329.167 313.699 328.31 310.65 327.666 307.436L327.647 307.329C324.196 290.137 317.773 258.138 312.361 233.835C309.946 223.003 309.762 208.516 309.762 204.334C309.762 195.394 309.835 186.648 309.835 186.561C309.84 186.164 310.164 185.84 310.561 185.84H310.566C310.967 185.844 311.287 186.169 311.287 186.57C311.287 186.658 311.214 195.404 311.214 204.334C311.214 208.477 311.398 222.833 313.78 233.521C319.196 257.833 325.624 289.846 329.075 307.044L329.094 307.15C329.728 310.311 330.58 313.331 331.33 315.998C332.332 319.556 333.121 322.363 333.121 324.347C333.121 327.382 333.058 329.943 333.044 330.398C341.785 381.452 346.78 418.664 346.829 419.032C346.858 419.24 346.795 419.448 346.654 419.608C346.514 419.768 346.315 419.855 346.107 419.855C318.629 419.855 312.899 419.787 312.845 419.787C312.463 419.782 312.148 419.482 312.129 419.1C310.895 394.695 304.99 342.402 302.332 329.285L289.97 274.832C289.462 288.854 288.175 324.744 288.175 327.721C288.959 360.499 288.848 418.553 288.843 419.134C288.843 419.535 288.518 419.86 288.117 419.86Z" fill="#484646"/>
<path d="M288.116 419.86H257.351C256.949 419.86 256.625 419.536 256.625 419.134C256.625 397.614 257.7 359.309 258.213 340.901C258.397 334.377 258.518 330.064 258.518 329.231C258.518 328.06 258.503 325.321 258.488 321.763C258.455 315.011 258.411 305.761 258.411 298.336C258.411 261.705 259.912 245.244 259.926 245.084C259.965 244.682 260.318 244.392 260.715 244.431C261.112 244.469 261.407 244.823 261.368 245.22C261.354 245.379 259.863 261.788 259.863 298.336C259.863 305.761 259.912 315.006 259.941 321.758C259.96 325.321 259.97 328.065 259.97 329.236C259.97 330.093 259.849 334.41 259.665 340.95C259.156 359.144 258.101 396.786 258.077 418.417H288.116C288.517 418.417 288.842 418.742 288.842 419.144C288.842 419.545 288.517 419.86 288.116 419.86Z" fill="#484646"/>
<path d="M275.87 238.656C273.707 238.656 269.331 236.236 268.605 235.825C252.623 230.142 235.57 222.49 235.57 218.018C235.57 211.512 239.457 203.695 241.543 199.494C241.722 199.136 242.158 198.991 242.516 199.165C242.874 199.344 243.02 199.78 242.845 200.138C240.812 204.233 237.023 211.851 237.023 218.013C237.023 219.416 242.792 225.109 269.152 234.47C269.191 234.484 269.229 234.503 269.268 234.523C270.575 235.268 274.307 237.199 275.87 237.199C280.657 237.199 281.432 234.987 281.432 229.687C281.432 226.159 280.042 221.914 279.292 221.643C278.987 221.648 278.798 221.696 278.518 221.764C278.077 221.87 277.53 222.006 276.311 222.006C274.975 222.006 274.379 221.851 273.949 221.74C273.726 221.682 273.619 221.657 273.474 221.657C272.666 221.657 270.072 222.776 268.76 227.737C268.692 227.993 268.489 228.192 268.232 228.255C267.976 228.318 267.7 228.235 267.521 228.037C267.424 227.93 257.797 217.345 250.352 209.76C250.072 209.475 250.077 209.015 250.362 208.734C250.648 208.453 251.108 208.458 251.388 208.744C257.545 215.021 265.193 223.342 267.734 226.115C269.331 221.474 272.124 220.201 273.474 220.201C273.813 220.201 274.07 220.268 274.316 220.331C274.694 220.428 275.159 220.549 276.311 220.549C277.351 220.549 277.782 220.443 278.169 220.346C278.484 220.268 278.813 220.186 279.331 220.186C281.678 220.186 282.884 226.841 282.884 229.678C282.884 234.416 282.346 238.656 275.87 238.656Z" fill="#484646"/>
<path d="M253.172 212.369C253.037 212.369 252.896 212.33 252.775 212.248C252.441 212.025 252.349 211.575 252.567 211.241C253.143 210.365 254.726 207.882 255.128 206.948C255.287 206.58 255.713 206.411 256.081 206.566C256.449 206.725 256.618 207.151 256.464 207.519C255.931 208.763 253.869 211.904 253.782 212.035C253.642 212.258 253.409 212.369 253.172 212.369Z" fill="#484646"/>
<path d="M328.163 296.003C327.892 296.003 327.654 295.994 327.475 295.984C326.347 295.902 325.621 295.621 325.258 295.132C325.021 294.808 325.084 294.358 325.408 294.116C325.733 293.879 326.188 293.946 326.425 294.266C326.812 294.668 329.45 294.609 330.287 294.358C330.636 293.574 331.701 289.968 331.701 285.19C331.701 280.098 327.388 271.43 327.345 271.342C327.306 271.27 327.282 271.192 327.272 271.11C324.866 252.267 320.171 226.546 320.123 226.29C320.113 226.246 320.113 226.203 320.113 226.159V211.653C320.113 211.251 320.438 210.927 320.839 210.927C321.241 210.927 321.565 211.251 321.565 211.653V226.091C321.832 227.548 326.343 252.398 328.7 270.805C329.242 271.904 333.158 280.021 333.158 285.19C333.158 290.418 331.88 294.871 331.318 295.432C330.873 295.873 329.252 296.003 328.163 296.003Z" fill="#484646"/>
<path d="M279.348 245.868H259.068C258.865 245.868 258.671 245.781 258.531 245.631C258.395 245.481 258.327 245.278 258.342 245.074L259.518 231.991C259.552 231.59 259.91 231.299 260.307 231.333C260.709 231.367 260.999 231.72 260.965 232.122L259.862 244.411H279.348C279.75 244.411 280.074 244.736 280.074 245.137C280.074 245.539 279.75 245.868 279.348 245.868Z" fill="#484646"/>
<path d="M261.307 220.985C261.283 220.985 261.263 220.985 261.239 220.98C260.837 220.946 260.547 220.593 260.581 220.191L261.355 211.58L262.289 186.542C262.304 186.14 262.648 185.83 263.044 185.845C263.446 185.859 263.756 186.198 263.741 186.6L262.807 211.677L262.033 220.327C261.994 220.699 261.68 220.985 261.307 220.985Z" fill="#484646"/>
<path d="M289.522 165.893C280.984 165.893 276.546 160.922 276.362 160.709C276.1 160.409 276.129 159.949 276.43 159.683C276.73 159.422 277.19 159.451 277.451 159.751C277.494 159.799 281.672 164.436 289.522 164.436C296.613 164.436 299.203 161.445 299.227 161.416C299.484 161.111 299.939 161.067 300.248 161.319C300.558 161.576 300.602 162.026 300.35 162.336C300.234 162.486 297.368 165.893 289.522 165.893Z" fill="#484646"/>
<path d="M371.839 437.42H336.002C335.314 437.42 334.738 436.907 334.661 436.224L333.712 419.167C333.688 418.766 333.998 418.422 334.4 418.403C334.811 418.378 335.14 418.688 335.164 419.085L336.103 435.963H371.055C370.629 431.868 369.225 431.079 364.593 430.31C358.891 429.366 357.042 428.799 354.67 427.991C352.241 427.159 343.707 420.465 342.744 419.7C342.43 419.453 342.376 418.993 342.623 418.679C342.87 418.364 343.33 418.311 343.644 418.558C346.215 420.581 353.286 425.978 355.145 426.617C357.444 427.406 359.244 427.952 364.835 428.877C370.295 429.782 372.178 431.031 372.574 436.641C372.589 436.844 372.516 437.038 372.381 437.188C372.231 437.338 372.037 437.42 371.839 437.42Z" fill="#484646"/>
<path d="M360.148 437.42C359.746 437.42 359.422 437.096 359.422 436.694C359.422 430.411 360.133 428.761 360.216 428.592C360.39 428.228 360.821 428.078 361.184 428.253C361.542 428.427 361.692 428.853 361.527 429.211C361.503 429.269 360.874 430.876 360.874 436.694C360.874 437.096 360.545 437.42 360.148 437.42Z" fill="#484646"/>
<path d="M342.534 424.231C342.316 424.231 342.098 424.134 341.958 423.945C341.716 423.626 341.774 423.171 342.093 422.929L345.268 420.508C345.588 420.266 346.043 420.329 346.285 420.644C346.527 420.963 346.469 421.418 346.149 421.66L342.974 424.08C342.843 424.182 342.688 424.231 342.534 424.231Z" fill="#484646"/>
<path d="M349.23 429.361C349.104 429.361 348.983 429.327 348.867 429.264C348.518 429.061 348.402 428.621 348.601 428.272L350.624 424.773C350.827 424.424 351.267 424.308 351.616 424.506C351.964 424.71 352.081 425.15 351.882 425.499L349.859 428.998C349.723 429.23 349.481 429.361 349.23 429.361Z" fill="#484646"/>
<path d="M352.69 431.97C352.603 431.97 352.52 431.956 352.433 431.922C352.056 431.781 351.867 431.36 352.007 430.988L353.59 426.777C353.73 426.399 354.152 426.21 354.524 426.351C354.902 426.491 355.091 426.912 354.95 427.285L353.367 431.496C353.261 431.786 352.985 431.97 352.69 431.97Z" fill="#484646"/>
<path d="M342.323 433.156C340.208 433.156 338.484 431.433 338.484 429.318C338.484 427.202 340.208 425.479 342.323 425.479C344.438 425.479 346.161 427.202 346.161 429.318C346.161 431.433 344.443 433.156 342.323 433.156ZM342.323 426.931C341.006 426.931 339.936 428.001 339.936 429.318C339.936 430.634 341.006 431.704 342.323 431.704C343.639 431.704 344.709 430.634 344.709 429.318C344.709 428.001 343.639 426.931 342.323 426.931Z" fill="#484646"/>
<path d="M278.798 139.756H277.434C276.775 139.756 276.141 139.48 275.691 139.001C275.241 138.522 275.009 137.868 275.057 137.215L275.657 128.396C275.686 127.994 276.03 127.694 276.432 127.723C276.833 127.752 277.133 128.096 277.104 128.498L276.504 137.316C276.485 137.578 276.577 137.825 276.751 138.013C276.93 138.202 277.172 138.309 277.429 138.309H278.794C279.195 138.309 279.52 138.633 279.52 139.035C279.52 139.436 279.2 139.756 278.798 139.756Z" fill="#484646"/>
<path d="M371.867 440H335.26C334.65 440 334.156 439.506 334.156 438.896V437.072C334.156 436.462 334.65 435.968 335.26 435.968H371.867C372.472 435.968 372.97 436.462 372.97 437.072V438.901C372.965 439.506 372.472 440 371.867 440ZM335.609 438.548H371.513V437.42H335.609V438.548Z" fill="#484646"/>
<path d="M280.673 440H261.395C260.848 440 260.402 439.555 260.402 439.008V436.96C260.402 436.413 260.848 435.968 261.395 435.968H280.673C281.22 435.968 281.665 436.413 281.665 436.96V439.008C281.665 439.555 281.22 440 280.673 440ZM261.85 438.548H280.213V437.42H261.85V438.548Z" fill="#484646"/>
<path d="M271.328 162.161C270.98 162.161 270.675 161.91 270.612 161.556C270.544 161.159 270.811 160.787 271.207 160.719C281.27 159.025 281.27 157.157 281.27 154.33C281.27 152.694 281.096 150.869 281.091 150.85C281.052 150.453 281.343 150.095 281.745 150.056C282.142 150.022 282.5 150.308 282.538 150.709C282.548 150.787 282.722 152.626 282.722 154.33C282.722 158.357 281.609 160.438 271.445 162.152C271.406 162.157 271.367 162.161 271.328 162.161Z" fill="#484646"/>
<path d="M259.486 208.671C259.447 208.671 259.409 208.666 259.37 208.661C248.16 206.885 240.585 199.387 240.27 199.068C240.053 198.845 239.994 198.511 240.135 198.231C240.716 197.064 242.027 193.792 243.542 190.002C245.9 184.117 248.833 176.788 251.233 171.721C255.159 163.439 259.491 162.461 268.136 161.188C268.532 161.13 268.9 161.406 268.958 161.803C269.016 162.2 268.741 162.568 268.344 162.626C259.999 163.855 256.161 164.717 252.545 172.345C250.159 177.374 247.235 184.678 244.888 190.544C243.479 194.068 242.332 196.933 241.664 198.39C243.262 199.852 249.931 205.51 259.031 207.132L261.814 200.433C261.969 200.065 262.395 199.886 262.763 200.041C263.131 200.196 263.31 200.622 263.155 200.99L260.149 208.221C260.038 208.497 259.772 208.671 259.486 208.671Z" fill="#484646"/>
<path d="M323.747 212.369H310.712C310.31 212.369 309.986 212.045 309.986 211.643C309.986 211.241 310.31 210.917 310.712 210.917H323.011C322.962 207.422 322.72 192.214 321.994 181.871C321.312 171.977 317.372 170.361 307.856 166.45C306.298 165.811 304.531 165.085 302.638 164.262C296.051 161.397 295.141 157.515 295.141 153.749C295.141 149.901 297.072 146.445 299.12 142.781C301.365 138.764 303.684 134.611 303.684 129.548C303.684 119.408 297.711 113.106 288.103 113.106C277.551 113.106 272.203 119.49 272.203 132.079C272.203 141.716 275.673 148.928 277.092 149.756C278.186 150.39 284.052 150.022 287.871 149.557C288.268 149.504 288.631 149.79 288.679 150.191C288.728 150.593 288.442 150.951 288.045 151C286.428 151.198 278.277 152.128 276.361 151.014C274.4 149.877 270.746 142.375 270.746 132.084C270.746 118.725 276.748 111.658 288.098 111.658C298.606 111.658 305.131 118.517 305.131 129.553C305.131 134.993 302.609 139.509 300.383 143.493C298.432 146.987 296.588 150.283 296.588 153.754C296.588 157.645 297.696 160.54 303.214 162.936C305.092 163.754 306.849 164.475 308.403 165.114C317.919 169.025 322.696 170.985 323.442 181.774C324.269 193.511 324.473 211.459 324.473 211.643C324.473 211.837 324.4 212.025 324.264 212.161C324.129 212.292 323.94 212.369 323.747 212.369Z" fill="#484646"/>
<path d="M289.132 255.011C288.731 255.011 288.406 254.687 288.406 254.285V245.142C288.406 244.74 288.731 244.416 289.132 244.416C289.534 244.416 289.858 244.74 289.858 245.142V254.285C289.858 254.687 289.534 255.011 289.132 255.011Z" fill="#484646"/>
<path d="M280.366 437.42C279.964 437.42 279.64 437.096 279.64 436.694C279.64 433.185 276.765 429.632 271.261 429.632C266.387 429.632 262.573 432.735 262.573 436.694C262.573 437.096 262.249 437.42 261.847 437.42C261.445 437.42 261.121 437.096 261.121 436.694C261.121 431.922 265.574 428.18 271.261 428.18C276.866 428.18 281.092 431.839 281.092 436.694C281.092 437.096 280.768 437.42 280.366 437.42Z" fill="#484646"/>
<path d="M263.527 432.744C263.353 432.744 263.184 432.682 263.043 432.561C262.743 432.294 262.719 431.834 262.985 431.534C265.643 428.572 267.84 425.595 267.84 419.134C267.84 418.732 268.164 418.408 268.566 418.408C268.968 418.408 269.292 418.732 269.292 419.134C269.292 426.099 266.819 429.434 264.065 432.502C263.924 432.662 263.726 432.744 263.527 432.744Z" fill="#484646"/>
<path d="M280.362 437.42C279.979 437.42 279.66 437.125 279.636 436.738C279.631 436.636 279.031 426.544 278.44 419.192C278.406 418.79 278.706 418.442 279.108 418.408C279.51 418.374 279.858 418.674 279.892 419.076C280.488 426.443 281.088 436.549 281.093 436.651C281.117 437.052 280.812 437.396 280.41 437.42C280.396 437.42 280.376 437.42 280.362 437.42Z" fill="#484646"/>
<path d="M277.009 422.338H270.765C270.363 422.338 270.039 422.014 270.039 421.612C270.039 421.21 270.363 420.886 270.765 420.886H277.004C277.406 420.886 277.73 421.21 277.73 421.612C277.73 422.014 277.411 422.338 277.009 422.338Z" fill="#484646"/>
<path d="M276.83 425.102H270.765C270.363 425.102 270.039 424.777 270.039 424.376C270.039 423.974 270.363 423.65 270.765 423.65H276.825C277.227 423.65 277.551 423.974 277.551 424.376C277.551 424.777 277.232 425.102 276.83 425.102Z" fill="#484646"/>
<path d="M276.249 427.56H270.097C269.695 427.56 269.371 427.236 269.371 426.834C269.371 426.433 269.695 426.108 270.097 426.108H276.249C276.651 426.108 276.975 426.433 276.975 426.834C276.975 427.236 276.651 427.56 276.249 427.56Z" fill="#484646"/>
<path d="M211.597 146C205.634 146 201.911 143.797 197.696 141.3C189.792 136.624 178.969 130.216 145.165 134.073C139.381 134.732 133.964 134.737 133.461 130.327C133.185 127.907 134.981 125.409 138.655 123.115C152.449 114.504 162.759 105.821 169.283 97.3119C172.197 93.5123 176.176 90.6905 181.098 88.9286C189.893 85.7825 226.238 79.1417 259.922 75.2985C293.605 71.4554 330.516 69.7323 339.79 70.8165C344.988 71.4264 349.495 73.2753 353.193 76.3198C361.469 83.1397 373.464 89.2723 388.851 94.5578C392.95 95.9663 395.259 97.9895 395.535 100.41C395.748 102.268 394.896 103.725 393.004 104.742C391.329 105.642 388.778 106.261 384.974 106.692C351.169 110.55 342.07 119.228 335.419 125.564C331.295 129.499 327.733 132.897 319.853 133.793C317.549 134.054 315.482 134.267 313.474 134.17C308.813 133.948 304.074 133.057 304.026 133.047C303.634 132.975 303.372 132.592 303.45 132.2C303.527 131.808 303.905 131.547 304.297 131.624C304.345 131.634 308.987 132.51 313.542 132.723C315.444 132.815 317.37 132.616 319.689 132.355C327.08 131.513 330.318 128.425 334.417 124.519C341.213 118.038 350.516 109.166 384.809 105.255C388.376 104.848 390.83 104.262 392.316 103.464C393.686 102.728 394.238 101.837 394.093 100.574C393.831 98.2654 390.84 96.7746 388.376 95.9276C372.829 90.5888 360.68 84.3691 352.268 77.4379C348.793 74.5725 344.538 72.83 339.621 72.254C330.424 71.1795 293.677 72.9026 260.086 76.7361C226.495 80.5695 190.309 87.1716 181.587 90.2887C176.931 91.9538 173.175 94.611 170.435 98.188C163.799 106.833 153.369 115.632 139.424 124.335C137.217 125.714 134.637 127.839 134.903 130.148C135.107 131.915 136.462 133.589 145 132.616C179.288 128.706 190.353 135.254 198.436 140.037C203.31 142.921 207.158 145.201 214.549 144.354C220.464 143.676 225.111 142.215 230.488 140.525C238.126 138.12 247.632 135.129 264.941 133.047C265.338 132.999 265.701 133.284 265.749 133.681C265.798 134.078 265.512 134.441 265.115 134.49C247.942 136.556 238.504 139.528 230.924 141.915C225.474 143.628 220.769 145.109 214.714 145.801C213.61 145.942 212.574 146 211.597 146Z" fill="#484646"/>
<path d="M177.827 91.8813C177.58 91.8813 177.338 91.7554 177.203 91.5231C176.999 91.1794 177.111 90.7341 177.459 90.5309C177.542 90.4825 185.557 85.7536 195.465 80.8601C208.809 74.2677 219.046 70.531 225.886 69.7469C229.811 69.3016 233.296 69.4565 237.328 69.6356C242.928 69.8873 249.279 70.1729 259.216 69.0403C269.152 67.9076 275.271 66.199 280.672 64.6889C284.564 63.6047 287.923 62.6657 291.843 62.2155C298.683 61.4363 309.501 62.7722 323.987 66.1894C334.742 68.7256 343.624 71.5281 343.711 71.5572C344.094 71.6782 344.307 72.0848 344.186 72.4671C344.065 72.8495 343.658 73.0625 343.276 72.9415C342.922 72.8302 307.971 61.8428 292.013 63.6628C288.204 64.0984 284.898 65.0229 281.064 66.0926C275.88 67.5398 269.433 69.3404 259.38 70.4875C249.332 71.6346 242.638 71.3345 237.265 71.0925C233.291 70.9134 229.86 70.7585 226.05 71.1942C210.097 73.0141 178.514 91.6005 178.195 91.7845C178.079 91.8474 177.953 91.8813 177.827 91.8813Z" fill="#484646"/>
<path d="M263.438 122.167C262.436 122.167 261.57 121.412 261.454 120.395L259.653 104.635C259.542 103.682 259.813 102.743 260.413 101.993C261.009 101.242 261.865 100.768 262.819 100.657C264.794 100.429 266.575 101.852 266.797 103.822L268.598 119.582C268.661 120.114 268.511 120.637 268.177 121.053C267.843 121.47 267.369 121.736 266.836 121.794L263.666 122.157C263.593 122.162 263.516 122.167 263.438 122.167ZM261.1 104.466L262.901 120.226C262.935 120.526 263.206 120.744 263.506 120.71L266.676 120.347C266.822 120.332 266.952 120.26 267.044 120.143C267.136 120.027 267.175 119.887 267.16 119.742L265.36 103.982C265.224 102.811 264.164 101.968 262.988 102.094C262.422 102.157 261.909 102.443 261.555 102.888C261.192 103.338 261.033 103.9 261.1 104.466Z" fill="#484646"/>
<path d="M274.477 217.301C274.114 217.301 273.799 217.03 273.755 216.658L262.899 121.513C262.855 121.116 263.141 120.753 263.538 120.71L266.64 120.356C266.834 120.332 267.023 120.39 267.173 120.511C267.323 120.632 267.42 120.807 267.444 120.995L278.3 216.125C278.344 216.522 278.058 216.885 277.661 216.929C277.26 216.977 276.902 216.687 276.858 216.29L266.084 121.881L264.423 122.07L275.198 216.493C275.241 216.89 274.956 217.253 274.559 217.297C274.535 217.301 274.506 217.301 274.477 217.301Z" fill="#484646"/>
<path d="M261.276 101.31C260.913 101.31 260.599 101.039 260.555 100.666L258.299 81.2133C258.159 79.9597 259.059 78.8223 260.313 78.6819C261.567 78.5415 262.704 79.4418 262.844 80.6954L265.144 99.9644C265.192 100.361 264.906 100.724 264.509 100.773C264.108 100.821 263.75 100.536 263.701 100.139L261.402 80.8648C261.349 80.405 260.933 80.0759 260.478 80.1243C260.023 80.1775 259.689 80.5889 259.742 81.0488L261.997 100.502C262.046 100.899 261.76 101.262 261.358 101.305C261.334 101.31 261.305 101.31 261.276 101.31Z" fill="#484646"/>
<path d="M262.171 102.181C262.002 102.181 261.828 102.123 261.692 102.002L236.257 79.5919C235.957 79.3257 235.928 78.8659 236.194 78.5658C236.46 78.2657 236.92 78.2366 237.22 78.5029L262.655 100.913C262.956 101.179 262.985 101.639 262.718 101.939C262.573 102.099 262.375 102.181 262.171 102.181Z" fill="#484646"/>
<path d="M234.761 106.397C234.398 106.397 234.083 106.126 234.039 105.753C233.996 105.356 234.281 104.993 234.678 104.95L260.636 101.988C261.033 101.939 261.396 102.23 261.44 102.627C261.483 103.024 261.198 103.387 260.801 103.43L234.843 106.392C234.814 106.392 234.79 106.397 234.761 106.397Z" fill="#484646"/>
<path d="M261.369 102.675C261.335 102.675 261.302 102.675 261.263 102.665L201.646 94.0302C201.249 93.9721 200.973 93.6043 201.031 93.2074C201.089 92.8105 201.457 92.5346 201.854 92.5927L261.476 101.232C261.873 101.291 262.149 101.658 262.09 102.055C262.037 102.414 261.723 102.675 261.369 102.675Z" fill="#484646"/>
<path d="M221.126 131.668C221.03 131.668 220.933 131.648 220.836 131.605C220.468 131.445 220.299 131.014 220.458 130.651C237.796 90.8889 257.883 80.3469 258.73 79.921C259.088 79.7419 259.524 79.8822 259.703 80.2404C259.887 80.5986 259.742 81.0342 259.384 81.2181C259.18 81.3198 238.89 92.0119 221.785 131.237C221.673 131.503 221.402 131.668 221.126 131.668Z" fill="#484646"/>
<path d="M157.589 121.9C157.376 121.9 157.163 121.808 157.022 121.624C156.771 121.31 156.824 120.855 157.139 120.603C191.393 93.3043 214.539 83.9046 260.318 78.6771C260.715 78.6287 261.078 78.9192 261.121 79.3161C261.165 79.713 260.879 80.076 260.482 80.1195C215.023 85.3083 192.046 94.6402 158.044 121.736C157.903 121.847 157.744 121.9 157.589 121.9Z" fill="#484646"/>
<path d="M200.796 143.062C200.642 143.062 200.482 143.014 200.346 142.907C200.032 142.66 199.978 142.2 200.225 141.886C200.554 141.469 208.391 131.663 219.881 130.351C223.134 129.979 225.83 130.681 227.892 132.433C231.556 135.54 231.856 140.811 231.871 141.034C231.89 141.436 231.58 141.774 231.183 141.794C230.777 141.818 230.443 141.508 230.423 141.106C230.419 141.058 230.133 136.228 226.948 133.532C225.206 132.055 222.882 131.47 220.051 131.794C209.156 133.038 201.445 142.689 201.368 142.786C201.222 142.97 201.009 143.062 200.796 143.062Z" fill="#484646"/>
<path d="M154.757 133.154C154.578 133.154 154.404 133.091 154.263 132.96C153.968 132.689 153.954 132.229 154.225 131.934C154.259 131.895 157.826 127.97 157.197 122.476C157.085 121.518 156.669 120.84 155.919 120.4C152.855 118.609 145.183 121.184 142.487 122.321C142.119 122.476 141.693 122.307 141.534 121.934C141.379 121.566 141.548 121.14 141.921 120.981C142.347 120.802 152.337 116.62 156.65 119.141C157.807 119.814 158.474 120.879 158.639 122.307C159.346 128.483 155.449 132.738 155.285 132.917C155.144 133.076 154.951 133.154 154.757 133.154Z" fill="#484646"/>
<path d="M263.635 102.017C263.49 102.017 263.339 101.973 263.214 101.881C262.889 101.649 262.812 101.194 263.044 100.87L282.778 73.3046C283.01 72.9803 283.465 72.9029 283.789 73.1352C284.114 73.3675 284.191 73.8225 283.959 74.1468L264.225 101.712C264.085 101.91 263.862 102.017 263.635 102.017Z" fill="#484646"/>
<path d="M265.358 102.903C264.995 102.903 264.681 102.632 264.637 102.259C264.594 101.862 264.879 101.499 265.276 101.455L291.21 98.4979C291.612 98.4495 291.97 98.74 292.013 99.1369C292.057 99.5338 291.771 99.8968 291.374 99.9403L265.441 102.898C265.412 102.903 265.382 102.903 265.358 102.903Z" fill="#484646"/>
<path d="M264.505 102.326C264.214 102.326 263.938 102.152 263.827 101.862C263.682 101.489 263.866 101.068 264.238 100.923L320.404 79.0594C320.777 78.9142 321.198 79.0982 321.343 79.4709C321.488 79.8436 321.305 80.2647 320.932 80.4099L264.766 102.273C264.679 102.307 264.592 102.326 264.505 102.326Z" fill="#484646"/>
<path d="M369.975 97.6603C369.869 97.6603 369.762 97.6361 369.661 97.5877C330.426 78.8512 305.934 74.9306 260.48 80.1193C260.078 80.1677 259.72 79.8773 259.676 79.4804C259.633 79.0835 259.918 78.7205 260.315 78.6769C306.094 73.4543 330.76 77.3991 370.29 96.276C370.653 96.4503 370.803 96.881 370.633 97.2441C370.508 97.5103 370.246 97.6603 369.975 97.6603Z" fill="#484646"/>
<path d="M332.532 127.936C332.304 127.936 332.082 127.83 331.936 127.631C331.849 127.515 325.629 119.054 311.985 121.228C307.106 122.186 304.584 124.267 304.56 124.287C304.255 124.543 303.795 124.504 303.539 124.199C303.282 123.894 303.316 123.439 303.621 123.178C303.732 123.081 306.423 120.835 311.733 119.8C326.356 117.471 332.856 126.411 333.122 126.794C333.355 127.123 333.277 127.573 332.948 127.805C332.827 127.892 332.677 127.936 332.532 127.936Z" fill="#484646"/>
<path d="M375.268 107.99C375.127 107.99 374.987 107.951 374.861 107.864C374.658 107.728 369.91 104.456 369.203 98.2802C369.038 96.8329 369.455 95.6277 370.437 94.6984C374.029 91.3151 384.367 93.0818 384.808 93.1592C385.205 93.227 385.466 93.6045 385.398 94.0014C385.331 94.3983 384.953 94.6597 384.556 94.5919C381.768 94.103 373.975 93.3625 371.434 95.7584C370.79 96.3634 370.534 97.133 370.645 98.1156C371.27 103.609 375.631 106.63 375.674 106.659C376.003 106.886 376.091 107.336 375.868 107.665C375.727 107.878 375.5 107.99 375.268 107.99Z" fill="#484646"/>
<path d="M277.603 245.592C276.664 245.592 275.759 245.244 275.076 244.605C274.326 243.903 273.924 242.92 273.973 241.909L274.161 237.901C274.181 237.499 274.515 237.194 274.921 237.209C275.323 237.228 275.633 237.567 275.613 237.969L275.425 241.977C275.396 242.572 275.628 243.128 276.068 243.545C276.543 243.99 277.201 244.203 277.874 244.126L280.487 243.825C281.155 243.748 281.751 243.395 282.114 242.853C282.453 242.349 282.549 241.754 282.39 241.178L280.536 235.781C280.405 235.403 280.608 234.987 280.986 234.857C281.364 234.726 281.78 234.929 281.911 235.307L283.779 240.742C284.064 241.759 283.895 242.809 283.324 243.661C282.724 244.556 281.751 245.142 280.657 245.268L278.043 245.568C277.888 245.582 277.743 245.592 277.603 245.592Z" fill="#484646"/>
<path d="M279.332 221.653C278.969 221.653 278.654 221.381 278.611 221.009C278.524 220.239 278.558 219.387 278.582 218.637C278.601 218.158 278.616 217.708 278.591 217.461C278.572 217.282 278.495 217.127 278.374 217.03C278.257 216.933 278.103 216.895 277.924 216.914L274.303 217.325C274.085 217.35 273.877 217.461 273.751 217.621C273.688 217.703 273.616 217.838 273.635 218.008C273.664 218.25 273.732 218.492 273.819 218.797C273.945 219.237 274.1 219.789 274.192 220.563C274.235 220.96 273.95 221.323 273.553 221.367C273.151 221.41 272.793 221.125 272.749 220.728C272.677 220.07 272.541 219.605 272.425 219.194C272.328 218.86 272.241 218.54 272.198 218.182C272.135 217.664 272.285 217.141 272.614 216.72C272.982 216.256 273.538 215.951 274.143 215.883L277.764 215.472C278.325 215.409 278.863 215.559 279.284 215.897C279.71 216.241 279.981 216.74 280.039 217.311C280.077 217.664 280.058 218.143 280.039 218.695C280.014 219.392 279.981 220.186 280.058 220.844C280.102 221.241 279.816 221.604 279.419 221.648C279.385 221.653 279.356 221.653 279.332 221.653Z" fill="#484646"/>
<path d="M311.874 121.233C311.656 121.233 311.443 121.136 311.303 120.952C297.435 103.145 284.71 93.2125 276.477 88.0189C267.561 82.3946 261.85 80.9522 261.792 80.9377C261.405 80.8409 261.163 80.4488 261.26 80.0616C261.356 79.6744 261.748 79.4324 262.136 79.5292C262.373 79.5872 268.075 81.0151 277.169 86.7411C285.519 91.9976 298.418 102.046 312.45 120.061C312.697 120.376 312.638 120.836 312.324 121.083C312.184 121.184 312.029 121.233 311.874 121.233Z" fill="#484646"/>
<path d="M268.122 134.064C267.739 134.064 267.42 133.764 267.396 133.381C267.372 132.98 267.676 132.636 268.078 132.617C268.127 132.612 269.322 132.544 270 132.544C270.987 132.549 271.529 132.612 271.554 132.612C271.95 132.66 272.231 133.028 272.183 133.425C272.134 133.822 271.766 134.102 271.37 134.054C271.365 134.054 270.866 133.986 270 133.996C269.361 133.996 268.17 134.064 268.156 134.069C268.151 134.064 268.136 134.064 268.122 134.064Z" fill="#484646"/>
<path d="M315.492 245.868H279.64C279.238 245.868 278.914 245.544 278.914 245.142C278.914 244.74 279.238 244.416 279.64 244.416H315.492C315.893 244.416 316.218 244.74 316.218 245.142C316.218 245.544 315.893 245.868 315.492 245.868Z" fill="#484646"/>
<path d="M282.033 268.777C281.196 268.777 280.494 268.133 279.942 266.865C279.352 265.505 278.872 263.283 278.524 260.278C277.778 253.835 278.664 244.963 278.703 244.59L278.761 244.014L279.918 243.869L280.136 244.421C280.257 244.779 283.146 253.211 283.897 259.653C284.245 262.664 284.289 264.929 284.022 266.391C283.756 267.857 283.151 268.656 282.231 268.767C282.164 268.772 282.096 268.777 282.033 268.777ZM279.869 248.385C279.681 251.599 279.531 256.338 279.966 260.103C280.3 262.974 280.736 265.05 281.273 266.279C281.617 267.068 281.927 267.339 282.062 267.315C282.193 267.301 282.44 266.972 282.595 266.125C282.832 264.803 282.788 262.678 282.454 259.813C282.019 256.052 280.789 251.473 279.869 248.385Z" fill="#484646"/>
<path opacity="0.5" fill-rule="evenodd" clip-rule="evenodd" d="M396 30L133 30L133 29L396 29L396 30Z" fill="#B6B6B6"/>
<g opacity="0.7">
<path d="M248.986 2.46503L245.476 6.77003C245.461 6.80003 245.446 6.83003 245.446 6.87503C245.446 6.93503 245.491 6.98003 245.581 6.98003H249.181V2.52503C249.181 2.46503 249.136 2.43503 249.076 2.43503C249.046 2.43503 249.016 2.45003 248.986 2.46503ZM250.711 11H249.181V8.30003H244.726C244.036 8.30003 243.586 7.88003 243.586 7.28003C243.586 6.95003 243.736 6.65003 243.961 6.39503L248.551 0.87503C248.836 0.53003 249.196 0.32003 249.646 0.32003C250.291 0.32003 250.711 0.710029 250.711 1.37003V6.98003H252.496V8.30003H250.711V11Z" fill="#484646"/>
<path d="M253.876 11L259.231 2.13503C259.261 2.09003 259.276 2.06003 259.276 2.03003C259.276 1.94003 259.216 1.88003 259.096 1.88003H253.411V0.500029H259.621C260.461 0.500029 261.001 0.95003 261.001 1.76003C261.001 2.04503 260.896 2.33003 260.731 2.60003L255.721 11H253.876Z" fill="#484646"/>
<path d="M261.636 11.105C261.051 11.105 260.601 10.655 260.601 10.07C260.601 9.48503 261.036 9.03503 261.636 9.03503C262.236 9.03503 262.686 9.48503 262.686 10.07C262.686 10.67 262.236 11.105 261.636 11.105Z" fill="#484646"/>
<path d="M266.669 9.63503H272.009V11H265.769C265.049 11 264.539 10.52 264.539 9.84503C264.539 9.30503 264.794 8.93003 265.304 8.54003L269.294 5.60003C270.179 4.95503 270.599 4.28003 270.599 3.57503C270.599 2.33003 269.624 1.67003 268.439 1.67003C267.089 1.67003 266.144 2.49503 266.039 3.81503H264.449C264.629 1.65503 266.204 0.32003 268.469 0.32003C270.584 0.32003 272.204 1.46003 272.204 3.51503C272.204 4.79003 271.514 5.72003 270.239 6.65003L266.594 9.35003C266.534 9.39503 266.504 9.44003 266.504 9.50003C266.504 9.57503 266.564 9.63503 266.669 9.63503Z" fill="#484646"/>
<path d="M274.275 3.30503H275.775V11H274.275V3.30503ZM275.025 2.10503C274.47 2.10503 274.035 1.67003 274.035 1.13003C274.035 0.59003 274.455 0.155029 275.025 0.155029C275.58 0.155029 276.015 0.59003 276.015 1.13003C276.015 1.67003 275.58 2.10503 275.025 2.10503Z" fill="#484646"/>
<path d="M281.947 3.12503C283.852 3.12503 284.857 4.47503 284.857 6.38003V11H283.357V6.47003C283.357 5.31503 282.757 4.41503 281.527 4.41503C280.132 4.41503 279.517 5.46503 279.517 6.72503V11H278.002V3.30503H279.457V4.62503C279.922 3.65003 280.807 3.12503 281.947 3.12503Z" fill="#484646"/>
</g>
</svg>
