<svg width="345" height="140" viewBox="0 0 345 140" fill="none" xmlns="http://www.w3.org/2000/svg">
<rect width="345" height="140" fill="white"/>
<g clip-path="url(#clip0_2124_30235)">
<path d="M229.421 21.6264L216.411 21.6174L68.4928 21.6219" stroke="black" stroke-width="1.1134" stroke-linecap="round" stroke-linejoin="round"/>
<path d="M59.5336 49.1422C59.5336 48.5623 59.5336 32.95 59.5336 31.525C59.5336 20.9475 68.3219 17.2254 77.87 15.7734" stroke="black" stroke-width="1.1134" stroke-linecap="round" stroke-linejoin="round"/>
<path d="M220.043 15.7731C229.591 17.2251 238.38 20.9472 238.38 31.5247C238.38 32.9497 238.38 40.2996 238.38 40.875C238.38 41.2256 238.097 41.5043 237.75 41.5043L232.212 41.5043C231.862 41.5043 231.583 41.2211 231.583 40.875L231.583 28.823C231.583 21.5631 225.699 15.6787 218.439 15.6787L79.4838 15.6787C72.2239 15.6787 66.3395 21.5586 66.3395 28.8185L66.3395 48.6608" stroke="black" stroke-width="1.1134" stroke-linecap="round" stroke-linejoin="round"/>
<path d="M273.317 48.6115C273.317 56.5772 270.13 62.8707 259.692 67.8919C256.091 69.6226 251.088 70.5397 246.067 70.5397C246.067 70.5397 174.865 70.0002 134.983 69.4788C106.991 69.1147 62.2667 66.7771 39.3136 65.2127C31.0827 64.6508 21.5616 58.1056 21.5616 51.8122C28.1158 51.6279 99.8925 45.8424 134.987 45.3839C181.946 44.768 187.344 44.822 271.699 44.323C272.594 44.323 273.317 45.1277 273.317 46.1166L273.317 48.6115Z" stroke="black" stroke-width="1.1134" stroke-linecap="round" stroke-linejoin="round"/>
<path d="M231.3 39.9985C230.54 39.9985 229.929 40.6144 229.929 41.3696L229.929 44.3545" stroke="black" stroke-width="1.1134" stroke-linecap="round" stroke-linejoin="round"/>
<path d="M239.989 70.3101L239.989 41.3738C239.989 40.614 239.373 40.0027 238.618 40.0027" stroke="black" stroke-width="1.1134" stroke-linecap="round" stroke-linejoin="round"/>
<path d="M229.924 44.4128L229.924 70.3104" stroke="black" stroke-width="1.1134" stroke-linecap="round" stroke-linejoin="round"/>
<path d="M68.0299 66.7995L68.0299 48.7688" stroke="black" stroke-width="1.1134" stroke-linecap="round" stroke-linejoin="round"/>
<path d="M57.9692 49.5105L57.9692 66.3724" stroke="black" stroke-width="1.1134" stroke-linecap="round" stroke-linejoin="round"/>
<path d="M268.521 62.2638C274.603 62.4796 284.457 62.8707 288.494 63.0325C289.703 63.082 290.903 63.1988 292.099 63.3831L296.783 64.1114C299.458 64.525 301.872 62.4616 301.872 59.7554L301.872 55.8085C301.872 53.1023 299.458 51.0345 296.783 51.4526L292.099 52.1808C290.903 52.3651 289.703 52.482 288.494 52.5314C285.351 52.6573 278.676 52.918 273.007 53.1338" stroke="black" stroke-width="1.1134" stroke-linecap="round" stroke-linejoin="round"/>
<path d="M22.3886 61.9448C25.5533 63.3114 28.9428 63.9587 36.8995 64.8803" stroke="black" stroke-width="1.1134" stroke-linecap="round" stroke-linejoin="round"/>
<path d="M22.3888 55.386C22.3888 57.6292 22.3888 60.2455 22.3888 61.9492C22.3888 62.1155 22.3034 62.4796 21.8359 62.3223C21.3684 62.165 18.815 61.0771 16.3291 60.8703L2.95554 60.259C2.24978 60.259 1.67889 59.6881 1.67889 58.9823L1.67889 56.4874C1.67889 55.7816 2.24978 55.2107 2.95554 55.2107L16.3291 54.5994C18.6037 54.4106 20.9368 53.48 21.6741 53.2058" stroke="black" stroke-width="1.1134" stroke-linecap="round" stroke-linejoin="round"/>
<path d="M301.867 56.6987C301.867 56.6987 340.01 50.1086 340.01 57.7821C340.01 65.4556 301.867 58.8699 301.867 58.8699" stroke="black" stroke-width="1.1134" stroke-miterlimit="10"/>
<path d="M201.186 105.181C200.39 105.181 199.877 104.304 199.877 102.425C199.877 93.7177 200.394 88.7864 205.515 88.7864" stroke="black" stroke-width="1.1134" stroke-linecap="round" stroke-linejoin="round"/>
<path d="M168.693 102.272C174.164 103.464 198.812 105.181 201.19 105.181C201.905 105.181 202.426 104.457 204.526 101.274C206.337 98.5322 210.109 91.0654 214.402 90.8676C217.881 90.7058 223.293 90.7058 223.293 90.7058" stroke="black" stroke-width="1.1134" stroke-linecap="round" stroke-linejoin="round"/>
<path d="M168.693 110.076C178.466 112.58 199.5 116.042 200.601 115.992C201.703 115.943 202.215 115.669 202.952 114.45C207.083 107.64 214.492 97.3771 217.899 93.8752C221.302 90.3689 225.065 90.2925 227.402 90.2925C229.74 90.2925 233.705 90.6386 233.705 90.6386" stroke="black" stroke-width="1.1134" stroke-linecap="round" stroke-linejoin="round"/>
<path d="M168.693 95.7314C168.693 94.9717 171.822 94.3738 174.196 93.8704C181.325 92.3554 195.27 89.7527 203.532 88.7862C207.641 88.3052 210.896 90.4899 212.518 91.326" stroke="black" stroke-width="1.1134" stroke-linecap="round" stroke-linejoin="round"/>
<path d="M238.263 119.611C238.263 119.611 243.235 119.665 246.085 119.665C251.362 119.665 256.86 118.536 256.86 111.205C256.86 109.006 256.851 111.627 256.851 107.635" stroke="black" stroke-width="1.1134" stroke-linecap="round" stroke-linejoin="round"/>
<path d="M227.097 119.732C230.738 120.622 235.148 121.359 240.52 118.653C245.891 115.947 253.489 111.766 256.851 107.64" stroke="black" stroke-width="1.1134" stroke-linecap="round" stroke-linejoin="round"/>
<path d="M217.378 119.759C219.886 120.541 224.404 121.971 228.535 118.774C232.666 115.578 242.516 106.089 246.773 102.164C252.922 96.4911 257.103 96.6709 256.851 100.083" stroke="black" stroke-width="1.1134" stroke-linecap="round" stroke-linejoin="round"/>
<path d="M206.629 121.458C210.626 122.317 213.655 121.849 217.373 119.759C221.091 117.669 227.335 108.588 232.842 102.506C241.212 93.2503 242.88 90.9846 247.559 90.9846C255.012 90.9846 256.846 93.6234 256.846 100.088L256.846 102.789" stroke="black" stroke-width="1.1134" stroke-linecap="round" stroke-linejoin="round"/>
<path d="M168.689 115.214C169.12 116.725 194.186 122.326 204.836 122.326C205.627 122.326 206.13 122.137 206.629 121.458C216.492 107.99 226.989 90.2876 235.943 90.2876C240.875 90.2876 245.891 91.1057 245.891 91.1057" stroke="black" stroke-width="1.1134" stroke-linecap="round" stroke-linejoin="round"/>
<path d="M144.279 95.7092C150.362 94.3965 156.201 95.0394 159.743 95.2012C160.543 95.2372 161.514 95.4844 161.514 96.4284" stroke="black" stroke-width="1.1134" stroke-linecap="round" stroke-linejoin="round"/>
<path d="M117.438 95.5472C124.9 94.8595 131.683 94.7156 137.622 94.9539C144.509 95.2326 151.225 97.197 155.176 98.7794C159.127 100.362 161.514 101.49 161.514 101.49" stroke="black" stroke-width="1.1134" stroke-linecap="round" stroke-linejoin="round"/>
<path d="M94.4577 96.1902C100.724 95.408 108.177 95.0394 113.284 95.2552C121.978 95.6283 132.515 98.366 141.191 101.675C149.867 104.983 161.51 108.89 161.51 108.89" stroke="black" stroke-width="1.1134" stroke-linecap="round" stroke-linejoin="round"/>
<path d="M63.0804 97.3228C70.5831 96.1046 80.4908 95.6101 92.3135 96.0236C100.338 96.3024 115.276 101.701 130.578 108.13C145.88 114.558 147.511 115.628 158.552 115.992L159.784 115.992C161.38 115.992 161.51 115.403 161.51 114.275" stroke="black" stroke-width="1.1134" stroke-linecap="round" stroke-linejoin="round"/>
<path d="M37.6954 98.2938C41.1747 97.8173 54.6112 96.4147 62.6084 97.2688C78.3555 98.9456 98.6069 108.808 113.01 113.614C128.869 118.909 148.927 116.185 152.02 115.924" stroke="black" stroke-width="1.1134" stroke-linecap="round" stroke-linejoin="round"/>
<path d="M22.3574 101.202C24.3309 99.7637 28.4665 98.06 34.9893 98.0061C40.7163 97.9566 61.4037 106.156 74.6739 110.831C85.611 114.684 94.1566 114.962 100.459 115.583C106.761 116.208 123.291 115.978 123.291 115.978" stroke="black" stroke-width="1.1134" stroke-linecap="round" stroke-linejoin="round"/>
<path d="M22.3887 102.753C26.8795 103.499 40.9274 108.39 52.0353 111.775C58.113 113.627 68.3578 114.67 71.037 114.855C74.7861 115.111 87.0763 115.412 92.4752 114.832" stroke="black" stroke-width="1.1134" stroke-linecap="round" stroke-linejoin="round"/>
<path d="M22.5597 109.824C27.963 112.319 35.7759 112.459 54.5798 112.459" stroke="black" stroke-width="1.1134" stroke-linecap="round" stroke-linejoin="round"/>
<path d="M301.881 104.443C301.881 104.443 340.023 97.8533 340.023 105.522C340.023 113.191 301.881 106.61 301.881 106.61" stroke="black" stroke-width="1.1134" stroke-miterlimit="10"/>
<path d="M168.689 115.691L168.689 95.3582C168.689 95.0081 168.405 94.7244 168.055 94.7244L162.144 94.7244C161.794 94.7244 161.51 95.0081 161.51 95.3582L161.51 115.691C161.51 116.041 161.794 116.324 162.144 116.324L168.055 116.324C168.405 116.324 168.689 116.041 168.689 115.691Z" stroke="black" stroke-width="1.1134" stroke-linecap="round" stroke-linejoin="round"/>
<path d="M22.3888 109.739C22.3888 109.905 22.3034 110.27 21.8359 110.112C21.3684 109.955 18.815 108.867 16.3291 108.66L2.95554 108.049C2.24978 108.049 1.67889 107.478 1.67889 106.772L1.67889 104.277C1.67889 103.571 2.24978 103.001 2.95554 103.001L16.3291 102.389C18.815 102.182 21.3729 101.09 21.8359 100.937C22.3034 100.78 22.3888 101.144 22.3888 101.315C22.3888 103.576 22.3888 107.586 22.3888 109.739Z" stroke="black" stroke-width="1.1134" stroke-linecap="round" stroke-linejoin="round"/>
<path d="M296.796 111.942L292.049 111.204C290.84 111.015 289.622 110.899 288.395 110.849C282.569 110.615 264.781 109.914 263.113 109.914C261.135 109.914 260.128 110.305 259 110.314C257.804 110.323 256.86 109.492 256.86 108.296L256.86 102.762C256.86 101.566 257.804 100.735 259 100.744C260.128 100.753 261.131 101.144 263.113 101.144C264.781 101.144 282.569 100.442 288.395 100.209C289.617 100.159 290.836 100.042 292.049 99.8536L296.796 99.1164C299.507 98.6938 301.953 100.789 301.953 103.531L301.953 107.527C301.953 110.269 299.507 112.364 296.796 111.942Z" stroke="black" stroke-width="1.1134" stroke-linecap="round" stroke-linejoin="round"/>
</g>
<defs>
<clipPath id="clip0_2124_30235">
<rect width="108" height="339.698" fill="white" transform="translate(340.698 15) rotate(90)"/>
</clipPath>
</defs>
</svg>
