<svg width="24" height="24" viewBox="0 0 24 24" fill="none" xmlns="http://www.w3.org/2000/svg">
<path d="M17.9065 23.0175C17.4304 23.0175 16.9558 22.8713 16.5378 22.579C16.1968 22.3402 16.1135 21.8687 16.3539 21.5277C16.5928 21.1867 17.0626 21.1034 17.4052 21.3438C17.8798 21.6754 18.3025 21.4208 18.4204 21.336C18.5383 21.2496 18.9123 20.9258 18.7426 20.3727L17.2889 15.6315C16.9966 14.6761 17.3361 13.631 18.1344 13.0307L22.0961 10.0496C22.5581 9.70232 22.4465 9.22144 22.401 9.08158C22.3554 8.94172 22.1637 8.48756 21.5854 8.47813L16.6273 8.39485C15.6279 8.37756 14.7384 7.73168 14.4147 6.78722L12.8039 2.09793C12.6153 1.55105 12.1235 1.50862 11.9773 1.50862C11.8312 1.50862 11.3393 1.55105 11.1507 2.09793L9.53996 6.78722C9.21466 7.73168 8.32678 8.37756 7.32731 8.39485L2.36929 8.47813C1.79098 8.48756 1.59769 8.94329 1.55369 9.08158C1.50812 9.22144 1.39654 9.70232 1.85856 10.0496L5.82026 13.0307C6.61857 13.631 6.95801 14.6776 6.66572 15.6331L5.2121 20.3742C5.04238 20.9274 5.41482 21.2511 5.53425 21.3376C5.65211 21.424 6.07484 21.6786 6.54943 21.3454L10.6086 18.4979C11.4273 17.9243 12.5258 17.9243 13.3445 18.4979L14.6174 19.3905C14.9584 19.6294 15.0417 20.1008 14.8013 20.4418C14.5608 20.7828 14.091 20.8661 13.75 20.6257L12.4771 19.7331C12.1769 19.5225 11.7746 19.5225 11.4745 19.7331L7.41532 22.5806C6.56986 23.173 5.48239 23.1652 4.64794 22.557C3.81191 21.9504 3.46775 20.9195 3.77105 19.9311L5.22467 15.1899C5.33153 14.8395 5.20738 14.456 4.91509 14.236L0.953384 11.2549C0.128356 10.6342 -0.198512 9.59703 0.120499 8.61485C0.439509 7.63268 1.31325 6.9868 2.34572 6.96951L7.30374 6.88622C7.6699 6.87994 7.99676 6.64265 8.11462 6.29692L9.72539 1.60762C10.0617 0.630163 10.9449 0 11.9789 0C13.0129 0 13.8961 0.631735 14.2324 1.60762L15.8432 6.29692C15.9626 6.64422 16.2879 6.87994 16.6556 6.88622L21.6137 6.96951C22.6461 6.9868 23.5199 7.63268 23.8389 8.61485C24.1579 9.59703 23.831 10.6342 23.006 11.2549L19.0443 14.236C18.752 14.456 18.6263 14.8395 18.7347 15.1899L20.1883 19.9311C20.4916 20.918 20.1475 21.9489 19.3114 22.557C18.884 22.8635 18.3953 23.0175 17.9065 23.0175Z" fill="#262525"></path>
</svg>