<svg width="21" height="25" viewBox="0 0 21 25" fill="none" xmlns="http://www.w3.org/2000/svg">
<g clip-path="url(#clip0_2967_37878)">
<path d="M10.0668 24.7918C9.91771 24.7918 9.76604 24.7455 9.63493 24.653L4.97685 21.3034C1.86118 19.0617 0 15.4319 0 11.5939V4.77903C0 4.43712 0.233932 4.1415 0.565551 4.05923C0.616965 4.04638 5.75577 2.77389 9.65292 0.126089C9.90485 -0.0435759 10.2339 -0.0435759 10.4858 0.126089C14.3907 2.77903 19.5218 4.04638 19.5706 4.05923C19.9022 4.13893 20.1362 4.43712 20.1362 4.77903V11.5939C20.1362 15.4319 18.275 19.0617 15.1593 21.3034L13.2596 22.671C12.928 22.9101 12.4653 22.8329 12.2262 22.5013C11.9871 22.1697 12.0642 21.707 12.3958 21.4679L14.2956 20.1003C17.0257 18.1363 18.6555 14.9564 18.6555 11.5939V5.34972C17.2236 4.95126 13.3676 3.75589 10.0694 1.62737C6.76862 3.75589 2.91259 4.95126 1.48072 5.34972V11.5939C1.48072 14.9564 3.11053 18.1363 5.8406 20.1003L10.4987 23.4499C10.8303 23.689 10.9074 24.1517 10.6683 24.4833C10.5244 24.6838 10.2956 24.7918 10.0668 24.7918Z" fill="#262525"></path>
<path d="M11.594 14.3933V15.9665H6.1544C5.41147 15.9665 4.8999 15.5064 4.8999 14.8277C4.8999 14.329 5.13126 13.9691 5.65568 13.5604L8.95901 11.0899C9.56055 10.6298 9.88189 10.1671 9.88189 9.68121C9.88189 8.87401 9.24179 8.40101 8.40889 8.40101C7.45002 8.40101 6.83563 8.95113 6.75851 9.86115H4.90247C5.04386 7.99227 6.41404 6.85345 8.42174 6.85345C10.4294 6.85345 11.7508 7.86373 11.7508 9.60666C11.7508 10.6555 11.1878 11.4113 9.94616 12.347L7.45002 14.1902C7.41146 14.2287 7.39861 14.2673 7.39861 14.3059C7.38576 14.3573 7.43717 14.3958 7.50144 14.3958H11.5965L11.594 14.3933Z" fill="#262525"></path>
<path d="M15.4934 9.10791V13.7737H14.5269V9.10791H15.4934Z" fill="#262525"></path>
<path d="M15.604 13.8842H14.4189V8.99994H15.604V13.8842ZM14.6375 13.6657H15.3855V9.21845H14.6375V13.6657Z" fill="#262525"></path>
<path d="M17.344 11.9254H12.6782V10.9588H17.344V11.9254Z" fill="#262525"></path>
<path d="M17.4522 12.0334H12.5679V10.8483H17.4522V12.0334ZM12.7864 11.8148H17.2337V11.0668H12.7864V11.8148Z" fill="#262525"></path>
</g>
<defs>
<clipPath id="clip0_2967_37878">
<rect width="20.1362" height="24.7917" fill="white"></rect>
</clipPath>
</defs>
</svg>