<svg width="15" height="18" viewBox="0 0 15 18" fill="none" xmlns="http://www.w3.org/2000/svg">
                      <path d="M13.9342 17.6608C14.3262 17.6608 14.6435 17.3445 14.6435 16.9547C14.6435 13.0504 11.4659 9.88488 7.54526 9.88488C3.62462 9.88488 0.447021 13.0504 0.447021 16.9547C0.447021 17.3445 0.764285 17.6608 1.15628 17.6608C1.54857 17.6608 1.86582 17.3445 1.86582 16.9547C1.86582 13.8298 4.40878 11.2974 7.54526 11.2974C10.6817 11.2974 13.2247 13.8297 13.2247 16.9547C13.2247 17.3445 13.5419 17.6608 13.9342 17.6608Z" fill="#262525"></path>
                      <path fill-rule="evenodd" clip-rule="evenodd" d="M3.24203 4.62496C3.24203 6.9918 5.16844 8.91084 7.54526 8.91084C9.92207 8.91084 11.8485 6.99173 11.8485 4.62496C11.8485 2.2584 9.92208 0.339355 7.54526 0.339355C5.16843 0.339355 3.24203 2.2584 3.24203 4.62496ZM10.4296 4.62503C10.4296 6.21246 9.13785 7.49864 7.54526 7.49864C5.95266 7.49864 4.66089 6.21246 4.66089 4.62503C4.66089 3.03788 5.95267 1.7517 7.54526 1.7517C9.13785 1.7517 10.4296 3.03788 10.4296 4.62503Z" fill="#262525"></path>
                    </svg>