<svg width="23" height="28" viewBox="0 0 23 28" fill="none" xmlns="http://www.w3.org/2000/svg">
<path d="M4.4138 22.2224C4.13677 22.2224 3.85837 22.1094 3.64198 21.8944C3.29742 21.5498 3.21472 21.0454 3.43662 20.6388L4.97337 17.8313C5.74795 16.4158 6.71272 15.1272 7.84151 13.9984L11.9032 9.93668L14.2076 7.30836C14.4654 7.02306 14.8168 6.86456 15.2041 6.85492C15.6328 6.84389 16.0683 7.02168 16.388 7.34144L18.1949 9.14832C18.5161 9.46945 18.6925 9.90085 18.6815 10.3322C18.6718 10.7195 18.5133 11.0724 18.2349 11.3232L15.5997 13.6345L11.538 17.6962C10.4106 18.8236 9.12053 19.7884 7.70506 20.5644L4.89757 22.1011C4.74596 22.1824 4.57919 22.2224 4.4138 22.2224ZM15.2413 8.17803C15.24 8.17803 15.2386 8.17803 15.2372 8.17803C15.2207 8.17803 15.2014 8.18217 15.1945 8.18906L12.8818 10.827C12.8721 10.8381 12.8625 10.8477 12.8528 10.8587L8.77596 14.9356C7.73676 15.9748 6.84779 17.1628 6.13386 18.468L5.00231 20.5354L7.06969 19.4039C8.37489 18.6899 9.56295 17.801 10.6021 16.7618L14.679 12.6849C14.6887 12.6753 14.6997 12.6642 14.7107 12.656L17.3556 10.3364C17.3556 10.3364 17.3583 10.3171 17.3597 10.3005C17.3611 10.2468 17.3349 10.1613 17.2591 10.0855L15.4522 8.27865C15.3778 8.20422 15.2951 8.17803 15.2413 8.17803Z" fill="#262525"></path>
<path d="M15.1462 13.8123C14.9766 13.8123 14.8071 13.7475 14.6789 13.6179L11.9169 10.8559C11.6592 10.5982 11.6592 10.1792 11.9169 9.9201C12.176 9.66099 12.5937 9.66099 12.8528 9.9201L15.6148 12.6821C15.8725 12.9398 15.8725 13.3588 15.6148 13.6179C15.4852 13.7489 15.3157 13.8123 15.1462 13.8123Z" fill="#262525"></path>
<path d="M16.778 9.32886C16.6084 9.32886 16.4389 9.26408 16.3107 9.13453C16.053 8.8768 16.053 8.45781 16.3107 8.1987L18.6262 5.88324C18.8853 5.62413 19.3029 5.62413 19.562 5.88324C19.8198 6.14097 19.8198 6.55996 19.562 6.81907L17.2466 9.13453C17.1156 9.26408 16.9461 9.32886 16.778 9.32886Z" fill="#262525"></path>
<path d="M11.0172 28C10.8476 28 10.6781 27.9352 10.5499 27.8057L8.20553 25.4612C7.6115 24.8672 7.6115 23.9011 8.20553 23.307L10.5499 20.9626C10.809 20.7035 11.2267 20.7035 11.4858 20.9626C11.7435 21.2204 11.7435 21.6394 11.4858 21.8985L9.14136 24.2429C9.0628 24.3214 9.0628 24.4482 9.14136 24.5254L11.4858 26.8698C11.7435 27.1276 11.7435 27.5465 11.4858 27.8057C11.3562 27.9366 11.1867 28 11.0172 28Z" fill="#262525"></path>
<path d="M10.9966 25.2049C10.1186 25.2049 9.23929 25.0987 8.37788 24.881C8.02367 24.7914 7.80867 24.4317 7.89825 24.0775C7.98784 23.7233 8.34756 23.5082 8.70177 23.5978C9.45843 23.7894 10.2303 23.8818 10.9993 23.8818C13.5822 23.8818 16.1485 22.8357 18.0587 20.9254C20.8924 18.0917 21.7207 13.8743 20.1716 10.1792C20.0296 9.8429 20.1881 9.45424 20.5258 9.31366C20.8621 9.17308 21.2507 9.3302 21.3913 9.66787C23.15 13.8605 22.2086 18.6458 18.9945 21.8612C16.8335 24.0223 13.9253 25.2049 10.9966 25.2049Z" fill="#262525"></path>
<path d="M11.2487 7.23116C11.0791 7.23116 10.9096 7.16638 10.7814 7.03683C10.5237 6.77909 10.5237 6.36011 10.7814 6.101L13.1258 3.75659C13.2044 3.67803 13.2044 3.55123 13.1258 3.47405L10.7814 1.12965C10.5237 0.871916 10.5237 0.452928 10.7814 0.193817C11.0405 -0.063916 11.4582 -0.0652942 11.7173 0.193817L14.0617 2.53822C14.6557 3.13225 14.6557 4.0984 14.0617 4.69242L11.7173 7.03683C11.5877 7.16638 11.4182 7.23116 11.2487 7.23116Z" fill="#262525"></path>
<path d="M1.48505 18.7396C1.22594 18.7396 0.980611 18.5866 0.874486 18.3344C-0.884163 14.1417 0.0571828 9.35644 3.27126 6.14098C6.08014 3.33349 10.1487 2.17576 13.8893 3.12124C14.2435 3.21083 14.4585 3.57055 14.3689 3.92476C14.2794 4.27897 13.9196 4.49398 13.5654 4.40439C10.2742 3.5733 6.68795 4.59734 4.20848 7.07682C1.37479 9.9105 0.546462 14.1279 2.09562 17.823C2.23758 18.1593 2.07908 18.548 1.74141 18.6886C1.65733 18.723 1.5705 18.7396 1.48505 18.7396Z" fill="#262525"></path>
</svg>