<svg width="17" height="16" viewBox="0 0 17 16" fill="none" xmlns="http://www.w3.org/2000/svg">
                      <path fill-rule="evenodd" clip-rule="evenodd" d="M13.1856 11.5552L15.9256 14.3067C16.2635 14.6484 16.2635 15.1986 15.9257 15.5212C15.7567 15.673 15.5503 15.7679 15.3251 15.7679C15.0998 15.7679 14.8933 15.6919 14.7244 15.5212L12.0031 12.7318C10.802 13.6996 9.30048 14.212 7.7803 14.212C5.94103 14.212 4.21441 13.4908 2.91938 12.1815C1.62435 10.8721 0.911133 9.12632 0.911133 7.26668C0.911133 5.40704 1.62435 3.66128 2.91938 2.35191C4.21438 1.04253 5.94107 0.321411 7.7803 0.321411C9.61957 0.321411 11.3462 1.04253 12.6412 2.35191C15.0999 4.83776 15.3251 8.78482 13.1856 11.5552ZM7.78615 12.7322C10.7941 12.7322 13.2326 10.2937 13.2326 7.28572C13.2326 4.27773 10.7941 1.83927 7.78615 1.83927C4.77816 1.83927 2.33971 4.27773 2.33971 7.28572C2.33971 10.2937 4.77816 12.7322 7.78615 12.7322Z" fill="#262525"></path>
                    </svg>